<svg xmlns="http://www.w3.org/2000/svg" xmlns:xlink="http://www.w3.org/1999/xlink" version="1.1" class="marks" width="762" height="442" viewBox="0 0 762 442"><rect width="762" height="442" fill="white"/><g fill="none" stroke-miterlimit="10" transform="translate(66,48)"><g class="mark-group role-frame root" role="graphics-object" aria-roledescription="group mark container"><g transform="translate(0,0)"><path class="background" aria-hidden="true" d="M0,0h0v0h0Z"/><g><g class="mark-group role-row-title row-title" role="graphics-object" aria-roledescription="group mark container"><g transform="translate(-35,161)"><path class="background" aria-hidden="true" d="M0,0h0v0h0Z"/><g><g class="mark-group role-title"><g transform="translate(-26,0)"><path class="background" aria-hidden="true" d="M0,0h0v0h0Z" pointer-events="none"/><g><g class="mark-text role-title-text" role="graphics-symbol" aria-roledescription="title" aria-label="Title text 'Sessie'" pointer-events="none"><text text-anchor="middle" transform="translate(0,0) rotate(-90) translate(0,13)" font-family="Georgia" font-size="16px" font-weight="bold" fill="#000" opacity="1">Sessie</text></g></g><path class="foreground" aria-hidden="true" d="" pointer-events="none" display="none"/></g></g></g><path class="foreground" aria-hidden="true" d="" display="none"/></g></g><g class="mark-group role-row-header row_header" role="graphics-object" aria-roledescription="group mark container"><g transform="translate(-1,0)"><path class="background" aria-hidden="true" d="M0,0h0v64h0Z"/><g><g class="mark-group role-title"><g transform="translate(-24,32)"><path class="background" aria-hidden="true" d="M0,0h0v0h0Z" pointer-events="none"/><g><g class="mark-text role-title-text" role="graphics-symbol" aria-roledescription="title" aria-label="Title text '1'" pointer-events="none"><text text-anchor="middle" transform="translate(0,0) rotate(-90) translate(0,11)" font-family="Georgia" font-size="14px" fill="#000" opacity="1">1</text></g></g><path class="foreground" aria-hidden="true" d="" pointer-events="none" display="none"/></g></g></g><path class="foreground" aria-hidden="true" d="" display="none"/></g><g transform="translate(-1,86)"><path class="background" aria-hidden="true" d="M0,0h0v64h0Z"/><g><g class="mark-group role-title"><g transform="translate(-24,32)"><path class="background" aria-hidden="true" d="M0,0h0v0h0Z" pointer-events="none"/><g><g class="mark-text role-title-text" role="graphics-symbol" aria-roledescription="title" aria-label="Title text '2'" pointer-events="none"><text text-anchor="middle" transform="translate(0,0) rotate(-90) translate(0,11)" font-family="Georgia" font-size="14px" fill="#000" opacity="1">2</text></g></g><path class="foreground" aria-hidden="true" d="" pointer-events="none" display="none"/></g></g></g><path class="foreground" aria-hidden="true" d="" display="none"/></g><g transform="translate(-1,172)"><path class="background" aria-hidden="true" d="M0,0h0v64h0Z"/><g><g class="mark-group role-title"><g transform="translate(-24,32)"><path class="background" aria-hidden="true" d="M0,0h0v0h0Z" pointer-events="none"/><g><g class="mark-text role-title-text" role="graphics-symbol" aria-roledescription="title" aria-label="Title text '3'" pointer-events="none"><text text-anchor="middle" transform="translate(0,0) rotate(-90) translate(0,11)" font-family="Georgia" font-size="14px" fill="#000" opacity="1">3</text></g></g><path class="foreground" aria-hidden="true" d="" pointer-events="none" display="none"/></g></g></g><path class="foreground" aria-hidden="true" d="" display="none"/></g><g transform="translate(-1,258)"><path class="background" aria-hidden="true" d="M0,0h0v64h0Z"/><g><g class="mark-group role-title"><g transform="translate(-24,32)"><path class="background" aria-hidden="true" d="M0,0h0v0h0Z" pointer-events="none"/><g><g class="mark-text role-title-text" role="graphics-symbol" aria-roledescription="title" aria-label="Title text '4'" pointer-events="none"><text text-anchor="middle" transform="translate(0,0) rotate(-90) translate(0,11)" font-family="Georgia" font-size="14px" fill="#000" opacity="1">4</text></g></g><path class="foreground" aria-hidden="true" d="" pointer-events="none" display="none"/></g></g></g><path class="foreground" aria-hidden="true" d="" display="none"/></g></g><g class="mark-group role-column-footer column_footer" role="graphics-object" aria-roledescription="group mark container"><g transform="translate(0,323)"><path class="background" aria-hidden="true" d="M0,0h600v0h-600Z"/><g><g class="mark-group role-axis" role="graphics-symbol" aria-roledescription="axis" aria-label="X-axis titled 'Tijdstip' for a time scale with values from 09:12 to 19:15"><g transform="translate(0.5,0.5)"><path class="background" aria-hidden="true" d="M0,0h0v0h0Z" pointer-events="none"/><g><g class="mark-rule role-axis-tick" pointer-events="none"><line transform="translate(18,0)" x2="0" y2="5" stroke="#888" stroke-width="1" opacity="1"/><line transform="translate(48,0)" x2="0" y2="5" stroke="#888" stroke-width="1" opacity="1"/><line transform="translate(78,0)" x2="0" y2="5" stroke="#888" stroke-width="1" opacity="1"/><line transform="translate(107,0)" x2="0" y2="5" stroke="#888" stroke-width="1" opacity="1"/><line transform="translate(137,0)" x2="0" y2="5" stroke="#888" stroke-width="1" opacity="1"/><line transform="translate(167,0)" x2="0" y2="5" stroke="#888" stroke-width="1" opacity="1"/><line transform="translate(197,0)" x2="0" y2="5" stroke="#888" stroke-width="1" opacity="1"/><line transform="translate(227,0)" x2="0" y2="5" stroke="#888" stroke-width="1" opacity="1"/><line transform="translate(257,0)" x2="0" y2="5" stroke="#888" stroke-width="1" opacity="1"/><line transform="translate(287,0)" x2="0" y2="5" stroke="#888" stroke-width="1" opacity="1"/><line transform="translate(316,0)" x2="0" y2="5" stroke="#888" stroke-width="1" opacity="1"/><line transform="translate(346,0)" x2="0" y2="5" stroke="#888" stroke-width="1" opacity="1"/><line transform="translate(376,0)" x2="0" y2="5" stroke="#888" stroke-width="1" opacity="1"/><line transform="translate(406,0)" x2="0" y2="5" stroke="#888" stroke-width="1" opacity="1"/><line transform="translate(436,0)" x2="0" y2="5" stroke="#888" stroke-width="1" opacity="1"/><line transform="translate(466,0)" x2="0" y2="5" stroke="#888" stroke-width="1" opacity="1"/><line transform="translate(496,0)" x2="0" y2="5" stroke="#888" stroke-width="1" opacity="1"/><line transform="translate(525,0)" x2="0" y2="5" stroke="#888" stroke-width="1" opacity="1"/><line transform="translate(555,0)" x2="0" y2="5" stroke="#888" stroke-width="1" opacity="1"/><line transform="translate(585,0)" x2="0" y2="5" stroke="#888" stroke-width="1" opacity="1"/></g><g class="mark-text role-axis-label" pointer-events="none"><text text-anchor="end" transform="translate(17.91044776119403,7) rotate(270) translate(0,4)" font-family="Georgia" font-size="14px" fill="#000" opacity="1">21:30</text><text text-anchor="end" transform="translate(47.76119402985074,7) rotate(270) translate(0,4)" font-family="Georgia" font-size="14px" fill="#000" opacity="1">22:00</text><text text-anchor="end" transform="translate(77.61194029850746,7) rotate(270) translate(0,4)" font-family="Georgia" font-size="14px" fill="#000" opacity="1">22:30</text><text text-anchor="end" transform="translate(107.46268656716417,7) rotate(270) translate(0,4)" font-family="Georgia" font-size="14px" fill="#000" opacity="1">23:00</text><text text-anchor="end" transform="translate(137.3134328358209,7) rotate(270) translate(0,4)" font-family="Georgia" font-size="14px" fill="#000" opacity="1">23:30</text><text text-anchor="end" transform="translate(167.16417910447763,7) rotate(270) translate(0,4)" font-family="Georgia" font-size="14px" fill="#000" opacity="1">00:00</text><text text-anchor="end" transform="translate(197.01492537313433,7) rotate(270) translate(0,4)" font-family="Georgia" font-size="14px" fill="#000" opacity="1">00:30</text><text text-anchor="end" transform="translate(226.86567164179104,7) rotate(270) translate(0,4)" font-family="Georgia" font-size="14px" fill="#000" opacity="1">01:00</text><text text-anchor="end" transform="translate(256.7164179104478,7) rotate(270) translate(0,4)" font-family="Georgia" font-size="14px" fill="#000" opacity="1">01:30</text><text text-anchor="end" transform="translate(286.56716417910445,7) rotate(270) translate(0,4)" font-family="Georgia" font-size="14px" fill="#000" opacity="1">02:00</text><text text-anchor="end" transform="translate(316.41791044776124,7) rotate(270) translate(0,4)" font-family="Georgia" font-size="14px" fill="#000" opacity="1">02:30</text><text text-anchor="end" transform="translate(346.2686567164179,7) rotate(270) translate(0,4)" font-family="Georgia" font-size="14px" fill="#000" opacity="1">03:00</text><text text-anchor="end" transform="translate(376.11940298507466,7) rotate(270) translate(0,4)" font-family="Georgia" font-size="14px" fill="#000" opacity="1">03:30</text><text text-anchor="end" transform="translate(405.97014925373134,7) rotate(270) translate(0,4)" font-family="Georgia" font-size="14px" fill="#000" opacity="1">04:00</text><text text-anchor="end" transform="translate(435.82089552238807,7) rotate(270) translate(0,4)" font-family="Georgia" font-size="14px" fill="#000" opacity="1">04:30</text><text text-anchor="end" transform="translate(465.6716417910448,7) rotate(270) translate(0,4)" font-family="Georgia" font-size="14px" fill="#000" opacity="1">05:00</text><text text-anchor="end" transform="translate(495.5223880597015,7) rotate(270) translate(0,4)" font-family="Georgia" font-size="14px" fill="#000" opacity="1">05:30</text><text text-anchor="end" transform="translate(525.3731343283582,7) rotate(270) translate(0,4)" font-family="Georgia" font-size="14px" fill="#000" opacity="1">06:00</text><text text-anchor="end" transform="translate(555.223880597015,7) rotate(270) translate(0,4)" font-family="Georgia" font-size="14px" fill="#000" opacity="1">06:30</text><text text-anchor="end" transform="translate(585.0746268656717,7) rotate(270) translate(0,4)" font-family="Georgia" font-size="14px" fill="#000" opacity="1">07:00</text></g><g class="mark-rule role-axis-domain" pointer-events="none"><line transform="translate(0,0)" x2="600" y2="0" stroke="#888" stroke-width="1" opacity="1"/></g><g class="mark-text role-axis-title" pointer-events="none"><text text-anchor="middle" transform="translate(300,62.70833206176758)" font-family="Georgia" font-size="16px" font-weight="bold" fill="#000" opacity="1">Tijdstip</text></g></g><path class="foreground" aria-hidden="true" d="" pointer-events="none" display="none"/></g></g></g><path class="foreground" aria-hidden="true" d="" display="none"/></g></g><g class="mark-group role-scope cell" role="graphics-object" aria-roledescription="group mark container"><g transform="translate(0,0)"><path class="background" aria-hidden="true" d="M0.5,0.5h600v64h-600Z" stroke="#ddd"/><g><g class="mark-group role-axis" aria-hidden="true"><g transform="translate(0.5,64.5)"><path class="background" aria-hidden="true" d="M0,0h0v0h0Z" pointer-events="none"/><g><g class="mark-rule role-axis-grid" pointer-events="none"><line transform="translate(18,0)" x2="0" y2="-64" stroke="#ddd" stroke-width="1" opacity="1"/><line transform="translate(48,0)" x2="0" y2="-64" stroke="#ddd" stroke-width="1" opacity="1"/><line transform="translate(78,0)" x2="0" y2="-64" stroke="#ddd" stroke-width="1" opacity="1"/><line transform="translate(107,0)" x2="0" y2="-64" stroke="#ddd" stroke-width="1" opacity="1"/><line transform="translate(137,0)" x2="0" y2="-64" stroke="#ddd" stroke-width="1" opacity="1"/><line transform="translate(167,0)" x2="0" y2="-64" stroke="#ddd" stroke-width="1" opacity="1"/><line transform="translate(197,0)" x2="0" y2="-64" stroke="#ddd" stroke-width="1" opacity="1"/><line transform="translate(227,0)" x2="0" y2="-64" stroke="#ddd" stroke-width="1" opacity="1"/><line transform="translate(257,0)" x2="0" y2="-64" stroke="#ddd" stroke-width="1" opacity="1"/><line transform="translate(287,0)" x2="0" y2="-64" stroke="#ddd" stroke-width="1" opacity="1"/><line transform="translate(316,0)" x2="0" y2="-64" stroke="#ddd" stroke-width="1" opacity="1"/><line transform="translate(346,0)" x2="0" y2="-64" stroke="#ddd" stroke-width="1" opacity="1"/><line transform="translate(376,0)" x2="0" y2="-64" stroke="#ddd" stroke-width="1" opacity="1"/><line transform="translate(406,0)" x2="0" y2="-64" stroke="#ddd" stroke-width="1" opacity="1"/><line transform="translate(436,0)" x2="0" y2="-64" stroke="#ddd" stroke-width="1" opacity="1"/><line transform="translate(466,0)" x2="0" y2="-64" stroke="#ddd" stroke-width="1" opacity="1"/><line transform="translate(496,0)" x2="0" y2="-64" stroke="#ddd" stroke-width="1" opacity="1"/><line transform="translate(525,0)" x2="0" y2="-64" stroke="#ddd" stroke-width="1" opacity="1"/><line transform="translate(555,0)" x2="0" y2="-64" stroke="#ddd" stroke-width="1" opacity="1"/><line transform="translate(585,0)" x2="0" y2="-64" stroke="#ddd" stroke-width="1" opacity="1"/></g></g><path class="foreground" aria-hidden="true" d="" pointer-events="none" display="none"/></g></g><g class="mark-rect role-mark child_marks" role="graphics-object" aria-roledescription="rect mark container"><path aria-label="start_offs (hours-minutes): 09:18; end_offs (hours-minutes): 11:47; category: Inslapen; Sessie: 1; Status: Inslapen; Duur: 02:29; Begin: 3/22/2022 21:18; Eind: 3/22/2022 23:47" role="graphics-symbol" aria-roledescription="rect mark" d="M9.970149253731343,10L150.22885572139305,10C152.43651581936905,10,154.22885572139305,11.792339902024,154.22885572139305,14L154.22885572139305,51C154.22885572139305,53.207660097976,152.43651581936905,55,150.22885572139305,55L9.970149253731343,55C7.762489155755343,55,5.970149253731343,53.207660097976,5.970149253731343,51L5.970149253731343,14C5.970149253731343,11.792339902024,7.762489155755343,10,9.970149253731343,10Z" fill="#4c78a8"/><path aria-label="start_offs (hours-minutes): 11:47; end_offs (hours-minutes): 15:12; category: Slapen; Sessie: 1; Status: Slapen; Duur: 03:25; Begin: 3/22/2022 23:47; Eind: 3/23/2022 03:12" role="graphics-symbol" aria-roledescription="rect mark" d="M158.22885572139305,10L354.2089552238806,10C356.41661532185657,10,358.2089552238806,11.792339902024,358.2089552238806,14L358.2089552238806,51C358.2089552238806,53.207660097976,356.41661532185657,55,354.2089552238806,55L158.22885572139305,55C156.02119562341704,55,154.22885572139305,53.207660097976,154.22885572139305,51L154.22885572139305,14C154.22885572139305,11.792339902024,156.02119562341704,10,158.22885572139305,10Z" fill="#54a24b"/><path aria-label="start_offs (hours-minutes): 15:12; end_offs (hours-minutes): 15:49; category: Wakker; Sessie: 1; Status: Wakker; Duur: 00:37; Begin: 3/23/2022 03:12; Eind: 3/23/2022 03:49" role="graphics-symbol" aria-roledescription="rect mark" d="M362.2089552238806,10L391.02487562189054,10C393.2325357198665,10,395.02487562189054,11.792339902024,395.02487562189054,14L395.02487562189054,51C395.02487562189054,53.207660097976,393.2325357198665,55,391.02487562189054,55L362.2089552238806,55C360.0012951259046,55,358.2089552238806,53.207660097976,358.2089552238806,51L358.2089552238806,14C358.2089552238806,11.792339902024,360.0012951259046,10,362.2089552238806,10Z" fill="#e45756"/><path aria-label="start_offs (hours-minutes): 15:49; end_offs (hours-minutes): 19:01; category: Slapen; Sessie: 1; Status: Slapen; Duur: 03:12; Begin: 3/23/2022 03:49; Eind: 3/23/2022 07:01" role="graphics-symbol" aria-roledescription="rect mark" d="M399.02487562189054,10L582.0696517412936,10C584.2773118392696,10,586.0696517412936,11.792339902024,586.0696517412936,14L586.0696517412936,51C586.0696517412936,53.207660097976,584.2773118392696,55,582.0696517412936,55L399.02487562189054,55C396.81721552391457,55,395.02487562189054,53.207660097976,395.02487562189054,51L395.02487562189054,14C395.02487562189054,11.792339902024,396.81721552391457,10,399.02487562189054,10Z" fill="#54a24b"/><path aria-label="start_offs (hours-minutes): 19:01; end_offs (hours-minutes): 19:06; category: Uit bed; Sessie: 1; Status: Uit bed; Duur: 00:05; Begin: 3/23/2022 07:01; Eind: 3/23/2022 07:06" role="graphics-symbol" aria-roledescription="rect mark" d="M588.5572139303483,10L588.5572139303483,10C589.9301368768507,10,591.044776119403,11.114639242552228,591.044776119403,12.4875621890547L591.044776119403,52.5124378109453C591.044776119403,53.88536075744777,589.9301368768507,55,588.5572139303483,55L588.5572139303483,55C587.1842909838458,55,586.0696517412936,53.88536075744777,586.0696517412936,52.5124378109453L586.0696517412936,12.4875621890547C586.0696517412936,11.114639242552228,587.1842909838458,10,588.5572139303483,10Z" fill="#ff9da6"/></g></g><path class="foreground" aria-hidden="true" d="" display="none"/></g><g transform="translate(0,86)"><path class="background" aria-hidden="true" d="M0.5,0.5h600v64h-600Z" stroke="#ddd"/><g><g class="mark-group role-axis" aria-hidden="true"><g transform="translate(0.5,64.5)"><path class="background" aria-hidden="true" d="M0,0h0v0h0Z" pointer-events="none"/><g><g class="mark-rule role-axis-grid" pointer-events="none"><line transform="translate(18,0)" x2="0" y2="-64" stroke="#ddd" stroke-width="1" opacity="1"/><line transform="translate(48,0)" x2="0" y2="-64" stroke="#ddd" stroke-width="1" opacity="1"/><line transform="translate(78,0)" x2="0" y2="-64" stroke="#ddd" stroke-width="1" opacity="1"/><line transform="translate(107,0)" x2="0" y2="-64" stroke="#ddd" stroke-width="1" opacity="1"/><line transform="translate(137,0)" x2="0" y2="-64" stroke="#ddd" stroke-width="1" opacity="1"/><line transform="translate(167,0)" x2="0" y2="-64" stroke="#ddd" stroke-width="1" opacity="1"/><line transform="translate(197,0)" x2="0" y2="-64" stroke="#ddd" stroke-width="1" opacity="1"/><line transform="translate(227,0)" x2="0" y2="-64" stroke="#ddd" stroke-width="1" opacity="1"/><line transform="translate(257,0)" x2="0" y2="-64" stroke="#ddd" stroke-width="1" opacity="1"/><line transform="translate(287,0)" x2="0" y2="-64" stroke="#ddd" stroke-width="1" opacity="1"/><line transform="translate(316,0)" x2="0" y2="-64" stroke="#ddd" stroke-width="1" opacity="1"/><line transform="translate(346,0)" x2="0" y2="-64" stroke="#ddd" stroke-width="1" opacity="1"/><line transform="translate(376,0)" x2="0" y2="-64" stroke="#ddd" stroke-width="1" opacity="1"/><line transform="translate(406,0)" x2="0" y2="-64" stroke="#ddd" stroke-width="1" opacity="1"/><line transform="translate(436,0)" x2="0" y2="-64" stroke="#ddd" stroke-width="1" opacity="1"/><line transform="translate(466,0)" x2="0" y2="-64" stroke="#ddd" stroke-width="1" opacity="1"/><line transform="translate(496,0)" x2="0" y2="-64" stroke="#ddd" stroke-width="1" opacity="1"/><line transform="translate(525,0)" x2="0" y2="-64" stroke="#ddd" stroke-width="1" opacity="1"/><line transform="translate(555,0)" x2="0" y2="-64" stroke="#ddd" stroke-width="1" opacity="1"/><line transform="translate(585,0)" x2="0" y2="-64" stroke="#ddd" stroke-width="1" opacity="1"/></g></g><path class="foreground" aria-hidden="true" d="" pointer-events="none" display="none"/></g></g><g class="mark-rect role-mark child_marks" role="graphics-object" aria-roledescription="rect mark container"><path aria-label="start_offs (hours-minutes): 09:12; end_offs (hours-minutes): 11:53; category: Inslapen; Sessie: 2; Status: Inslapen; Duur: 02:41; Begin: 3/23/2022 21:12; Eind: 3/23/2022 23:53" role="graphics-symbol" aria-roledescription="rect mark" d="M4,10L156.19900497512438,10C158.40666507310038,10,160.19900497512438,11.792339902024,160.19900497512438,14L160.19900497512438,51C160.19900497512438,53.207660097976,158.40666507310038,55,156.19900497512438,55L4,55C1.792339902024,55,0,53.207660097976,0,51L0,14C0,11.792339902024,1.792339902024,10,4,10Z" fill="#4c78a8"/><path aria-label="start_offs (hours-minutes): 11:53; end_offs (hours-minutes): 18:53; category: Slapen; Sessie: 2; Status: Slapen; Duur: 07:00; Begin: 3/23/2022 23:53; Eind: 3/24/2022 06:53" role="graphics-symbol" aria-roledescription="rect mark" d="M164.19900497512438,10L574.1094527363184,10C576.3171128342944,10,578.1094527363184,11.792339902024,578.1094527363184,14L578.1094527363184,51C578.1094527363184,53.207660097976,576.3171128342944,55,574.1094527363184,55L164.19900497512438,55C161.99134487714838,55,160.19900497512438,53.207660097976,160.19900497512438,51L160.19900497512438,14C160.19900497512438,11.792339902024,161.99134487714838,10,164.19900497512438,10Z" fill="#54a24b"/><path aria-label="start_offs (hours-minutes): 18:53; end_offs (hours-minutes): 18:59; category: Waken; Sessie: 2; Status: Waken; Duur: 00:06; Begin: 3/24/2022 06:53; Eind: 3/24/2022 06:59" role="graphics-symbol" aria-roledescription="rect mark" d="M581.0945273631842,10L581.0945273631842,10C582.7420348989871,10,584.0796019900498,11.337567091062697,584.0796019900498,12.985074626865696L584.0796019900498,52.014925373134304C584.0796019900498,53.662432908937305,582.7420348989871,55,581.0945273631842,55L581.0945273631842,55C579.4470198273812,55,578.1094527363184,53.662432908937305,578.1094527363184,52.014925373134304L578.1094527363184,12.985074626865696C578.1094527363184,11.337567091062697,579.4470198273812,10,581.0945273631842,10Z" fill="#eeca3b"/><path aria-label="start_offs (hours-minutes): 18:59; end_offs (hours-minutes): 19:04; category: Uit bed; Sessie: 2; Status: Uit bed; Duur: 00:05; Begin: 3/24/2022 06:59; Eind: 3/24/2022 07:04" role="graphics-symbol" aria-roledescription="rect mark" d="M586.5671641791046,10L586.5671641791046,10C587.940087125607,10,589.0547263681592,11.114639242552228,589.0547263681592,12.4875621890547L589.0547263681592,52.5124378109453C589.0547263681592,53.88536075744777,587.940087125607,55,586.5671641791046,55L586.5671641791046,55C585.194241232602,55,584.0796019900498,53.88536075744777,584.0796019900498,52.5124378109453L584.0796019900498,12.4875621890547C584.0796019900498,11.114639242552228,585.194241232602,10,586.5671641791046,10Z" fill="#ff9da6"/></g></g><path class="foreground" aria-hidden="true" d="" display="none"/></g><g transform="translate(0,172)"><path class="background" aria-hidden="true" d="M0.5,0.5h600v64h-600Z" stroke="#ddd"/><g><g class="mark-group role-axis" aria-hidden="true"><g transform="translate(0.5,64.5)"><path class="background" aria-hidden="true" d="M0,0h0v0h0Z" pointer-events="none"/><g><g class="mark-rule role-axis-grid" pointer-events="none"><line transform="translate(18,0)" x2="0" y2="-64" stroke="#ddd" stroke-width="1" opacity="1"/><line transform="translate(48,0)" x2="0" y2="-64" stroke="#ddd" stroke-width="1" opacity="1"/><line transform="translate(78,0)" x2="0" y2="-64" stroke="#ddd" stroke-width="1" opacity="1"/><line transform="translate(107,0)" x2="0" y2="-64" stroke="#ddd" stroke-width="1" opacity="1"/><line transform="translate(137,0)" x2="0" y2="-64" stroke="#ddd" stroke-width="1" opacity="1"/><line transform="translate(167,0)" x2="0" y2="-64" stroke="#ddd" stroke-width="1" opacity="1"/><line transform="translate(197,0)" x2="0" y2="-64" stroke="#ddd" stroke-width="1" opacity="1"/><line transform="translate(227,0)" x2="0" y2="-64" stroke="#ddd" stroke-width="1" opacity="1"/><line transform="translate(257,0)" x2="0" y2="-64" stroke="#ddd" stroke-width="1" opacity="1"/><line transform="translate(287,0)" x2="0" y2="-64" stroke="#ddd" stroke-width="1" opacity="1"/><line transform="translate(316,0)" x2="0" y2="-64" stroke="#ddd" stroke-width="1" opacity="1"/><line transform="translate(346,0)" x2="0" y2="-64" stroke="#ddd" stroke-width="1" opacity="1"/><line transform="translate(376,0)" x2="0" y2="-64" stroke="#ddd" stroke-width="1" opacity="1"/><line transform="translate(406,0)" x2="0" y2="-64" stroke="#ddd" stroke-width="1" opacity="1"/><line transform="translate(436,0)" x2="0" y2="-64" stroke="#ddd" stroke-width="1" opacity="1"/><line transform="translate(466,0)" x2="0" y2="-64" stroke="#ddd" stroke-width="1" opacity="1"/><line transform="translate(496,0)" x2="0" y2="-64" stroke="#ddd" stroke-width="1" opacity="1"/><line transform="translate(525,0)" x2="0" y2="-64" stroke="#ddd" stroke-width="1" opacity="1"/><line transform="translate(555,0)" x2="0" y2="-64" stroke="#ddd" stroke-width="1" opacity="1"/><line transform="translate(585,0)" x2="0" y2="-64" stroke="#ddd" stroke-width="1" opacity="1"/></g></g><path class="foreground" aria-hidden="true" d="" pointer-events="none" display="none"/></g></g><g class="mark-rect role-mark child_marks" role="graphics-object" aria-roledescription="rect mark container"><path aria-label="start_offs (hours-minutes): 09:29; end_offs (hours-minutes): 11:25; category: Inslapen; Sessie: 3; Status: Inslapen; Duur: 01:56; Begin: 3/24/2022 21:29; Eind: 3/24/2022 23:25" role="graphics-symbol" aria-roledescription="rect mark" d="M20.915422885572138,10L128.33830845771143,10C130.54596855568744,10,132.33830845771143,11.792339902024,132.33830845771143,14L132.33830845771143,51C132.33830845771143,53.207660097976,130.54596855568744,55,128.33830845771143,55L20.915422885572138,55C18.70776278759614,55,16.915422885572138,53.207660097976,16.915422885572138,51L16.915422885572138,14C16.915422885572138,11.792339902024,18.70776278759614,10,20.915422885572138,10Z" fill="#4c78a8"/><path aria-label="start_offs (hours-minutes): 11:25; end_offs (hours-minutes): 18:19; category: Slapen; Sessie: 3; Status: Slapen; Duur: 06:54; Begin: 3/24/2022 23:25; Eind: 3/25/2022 06:19" role="graphics-symbol" aria-roledescription="rect mark" d="M136.33830845771143,10L540.2786069651742,10C542.4862670631502,10,544.2786069651742,11.792339902024,544.2786069651742,14L544.2786069651742,51C544.2786069651742,53.207660097976,542.4862670631502,55,540.2786069651742,55L136.33830845771143,55C134.13064835973543,55,132.33830845771143,53.207660097976,132.33830845771143,51L132.33830845771143,14C132.33830845771143,11.792339902024,134.13064835973543,10,136.33830845771143,10Z" fill="#54a24b"/><path aria-label="start_offs (hours-minutes): 18:19; end_offs (hours-minutes): 19:00; category: Waken; Sessie: 3; Status: Waken; Duur: 00:41; Begin: 3/25/2022 06:19; Eind: 3/25/2022 07:00" role="graphics-symbol" aria-roledescription="rect mark" d="M548.2786069651742,10L581.0746268656717,10C583.2822869636477,10,585.0746268656717,11.792339902024,585.0746268656717,14L585.0746268656717,51C585.0746268656717,53.207660097976,583.2822869636477,55,581.0746268656717,55L548.2786069651742,55C546.0709468671981,55,544.2786069651742,53.207660097976,544.2786069651742,51L544.2786069651742,14C544.2786069651742,11.792339902024,546.0709468671981,10,548.2786069651742,10Z" fill="#eeca3b"/><path aria-label="start_offs (hours-minutes): 19:00; end_offs (hours-minutes): 19:05; category: Uit bed; Sessie: 3; Status: Uit bed; Duur: 00:05; Begin: 3/25/2022 07:00; Eind: 3/25/2022 07:05" role="graphics-symbol" aria-roledescription="rect mark" d="M587.5621890547263,10L587.5621890547263,10C588.9351120012288,10,590.0497512437811,11.114639242552228,590.0497512437811,12.4875621890547L590.0497512437811,52.5124378109453C590.0497512437811,53.88536075744777,588.9351120012288,55,587.5621890547263,55L587.5621890547263,55C586.1892661082239,55,585.0746268656717,53.88536075744777,585.0746268656717,52.5124378109453L585.0746268656717,12.4875621890547C585.0746268656717,11.114639242552228,586.1892661082239,10,587.5621890547263,10Z" fill="#ff9da6"/></g></g><path class="foreground" aria-hidden="true" d="" display="none"/></g><g transform="translate(0,258)"><path class="background" aria-hidden="true" d="M0.5,0.5h600v64h-600Z" stroke="#ddd"/><g><g class="mark-group role-axis" aria-hidden="true"><g transform="translate(0.5,64.5)"><path class="background" aria-hidden="true" d="M0,0h0v0h0Z" pointer-events="none"/><g><g class="mark-rule role-axis-grid" pointer-events="none"><line transform="translate(18,0)" x2="0" y2="-64" stroke="#ddd" stroke-width="1" opacity="1"/><line transform="translate(48,0)" x2="0" y2="-64" stroke="#ddd" stroke-width="1" opacity="1"/><line transform="translate(78,0)" x2="0" y2="-64" stroke="#ddd" stroke-width="1" opacity="1"/><line transform="translate(107,0)" x2="0" y2="-64" stroke="#ddd" stroke-width="1" opacity="1"/><line transform="translate(137,0)" x2="0" y2="-64" stroke="#ddd" stroke-width="1" opacity="1"/><line transform="translate(167,0)" x2="0" y2="-64" stroke="#ddd" stroke-width="1" opacity="1"/><line transform="translate(197,0)" x2="0" y2="-64" stroke="#ddd" stroke-width="1" opacity="1"/><line transform="translate(227,0)" x2="0" y2="-64" stroke="#ddd" stroke-width="1" opacity="1"/><line transform="translate(257,0)" x2="0" y2="-64" stroke="#ddd" stroke-width="1" opacity="1"/><line transform="translate(287,0)" x2="0" y2="-64" stroke="#ddd" stroke-width="1" opacity="1"/><line transform="translate(316,0)" x2="0" y2="-64" stroke="#ddd" stroke-width="1" opacity="1"/><line transform="translate(346,0)" x2="0" y2="-64" stroke="#ddd" stroke-width="1" opacity="1"/><line transform="translate(376,0)" x2="0" y2="-64" stroke="#ddd" stroke-width="1" opacity="1"/><line transform="translate(406,0)" x2="0" y2="-64" stroke="#ddd" stroke-width="1" opacity="1"/><line transform="translate(436,0)" x2="0" y2="-64" stroke="#ddd" stroke-width="1" opacity="1"/><line transform="translate(466,0)" x2="0" y2="-64" stroke="#ddd" stroke-width="1" opacity="1"/><line transform="translate(496,0)" x2="0" y2="-64" stroke="#ddd" stroke-width="1" opacity="1"/><line transform="translate(525,0)" x2="0" y2="-64" stroke="#ddd" stroke-width="1" opacity="1"/><line transform="translate(555,0)" x2="0" y2="-64" stroke="#ddd" stroke-width="1" opacity="1"/><line transform="translate(585,0)" x2="0" y2="-64" stroke="#ddd" stroke-width="1" opacity="1"/></g></g><path class="foreground" aria-hidden="true" d="" pointer-events="none" display="none"/></g></g><g class="mark-rect role-mark child_marks" role="graphics-object" aria-roledescription="rect mark container"><path aria-label="start_offs (hours-minutes): 09:37; end_offs (hours-minutes): 12:10; category: Inslapen; Sessie: 4; Status: Inslapen; Duur: 02:33; Begin: 3/25/2022 21:37; Eind: 3/26/2022 00:10" role="graphics-symbol" aria-roledescription="rect mark" d="M28.87562189054726,10L173.1144278606965,10C175.3220879586725,10,177.1144278606965,11.792339902024,177.1144278606965,14L177.1144278606965,51C177.1144278606965,53.207660097976,175.3220879586725,55,173.1144278606965,55L28.87562189054726,55C26.667961792571262,55,24.87562189054726,53.207660097976,24.87562189054726,51L24.87562189054726,14C24.87562189054726,11.792339902024,26.667961792571262,10,28.87562189054726,10Z" fill="#4c78a8"/><path aria-label="start_offs (hours-minutes): 12:10; end_offs (hours-minutes): 12:45; category: Slapen; Sessie: 4; Status: Slapen; Duur: 00:35; Begin: 3/26/2022 00:10; Eind: 3/26/2022 00:45" role="graphics-symbol" aria-roledescription="rect mark" d="M181.1144278606965,10L207.9402985074627,10C210.1479586054387,10,211.9402985074627,11.792339902024,211.9402985074627,14L211.9402985074627,51C211.9402985074627,53.207660097976,210.1479586054387,55,207.9402985074627,55L181.1144278606965,55C178.9067677627205,55,177.1144278606965,53.207660097976,177.1144278606965,51L177.1144278606965,14C177.1144278606965,11.792339902024,178.9067677627205,10,181.1144278606965,10Z" fill="#54a24b"/><path aria-label="start_offs (hours-minutes): 12:45; end_offs (hours-minutes): 14:02; category: Wakker; Sessie: 4; Status: Wakker; Duur: 01:17; Begin: 3/26/2022 00:45; Eind: 3/26/2022 02:02" role="graphics-symbol" aria-roledescription="rect mark" d="M215.9402985074627,10L284.55721393034827,10C286.76487402832424,10,288.55721393034827,11.792339902024,288.55721393034827,14L288.55721393034827,51C288.55721393034827,53.207660097976,286.76487402832424,55,284.55721393034827,55L215.9402985074627,55C213.7326384094867,55,211.9402985074627,53.207660097976,211.9402985074627,51L211.9402985074627,14C211.9402985074627,11.792339902024,213.7326384094867,10,215.9402985074627,10Z" fill="#e45756"/><path aria-label="start_offs (hours-minutes): 14:02; end_offs (hours-minutes): 18:30; category: Slapen; Sessie: 4; Status: Slapen; Duur: 04:28; Begin: 3/26/2022 02:02; Eind: 3/26/2022 06:30" role="graphics-symbol" aria-roledescription="rect mark" d="M292.55721393034827,10L551.223880597015,10C553.431540694991,10,555.223880597015,11.792339902024,555.223880597015,14L555.223880597015,51C555.223880597015,53.207660097976,553.431540694991,55,551.223880597015,55L292.55721393034827,55C290.3495538323723,55,288.55721393034827,53.207660097976,288.55721393034827,51L288.55721393034827,14C288.55721393034827,11.792339902024,290.3495538323723,10,292.55721393034827,10Z" fill="#54a24b"/><path aria-label="start_offs (hours-minutes): 18:30; end_offs (hours-minutes): 19:10; category: Waken; Sessie: 4; Status: Waken; Duur: 00:40; Begin: 3/26/2022 06:30; Eind: 3/26/2022 07:10" role="graphics-symbol" aria-roledescription="rect mark" d="M559.223880597015,10L591.0248756218906,10C593.2325357198666,10,595.0248756218906,11.792339902024,595.0248756218906,14L595.0248756218906,51C595.0248756218906,53.207660097976,593.2325357198666,55,591.0248756218906,55L559.223880597015,55C557.0162204990389,55,555.223880597015,53.207660097976,555.223880597015,51L555.223880597015,14C555.223880597015,11.792339902024,557.0162204990389,10,559.223880597015,10Z" fill="#eeca3b"/><path aria-label="start_offs (hours-minutes): 19:10; end_offs (hours-minutes): 19:15; category: Uit bed; Sessie: 4; Status: Uit bed; Duur: 00:05; Begin: 3/26/2022 07:10; Eind: 3/26/2022 07:15" role="graphics-symbol" aria-roledescription="rect mark" d="M597.5124378109454,10L597.5124378109454,10C598.8853607574478,10,600,11.114639242552228,600,12.4875621890547L600,52.5124378109453C600,53.88536075744777,598.8853607574478,55,597.5124378109454,55L597.5124378109454,55C596.1395148644428,55,595.0248756218906,53.88536075744777,595.0248756218906,52.5124378109453L595.0248756218906,12.4875621890547C595.0248756218906,11.114639242552228,596.1395148644428,10,597.5124378109454,10Z" fill="#ff9da6"/></g></g><path class="foreground" aria-hidden="true" d="" display="none"/></g></g><g class="mark-group role-legend" role="graphics-symbol" aria-roledescription="legend" aria-label="Symbol legend titled 'category' for fill color with 5 values: Inslapen, Slapen, Wakker, Waken, Uit bed"><g transform="translate(619,0)"><path class="background" aria-hidden="true" d="M0,0h72v99h-72Z" pointer-events="none"/><g><g class="mark-group role-legend-entry"><g transform="translate(0,21)"><path class="background" aria-hidden="true" d="M0,0h0v0h0Z" pointer-events="none"/><g><g class="mark-group role-scope" role="graphics-object" aria-roledescription="group mark container"><g transform="translate(0,0)"><path class="background" aria-hidden="true" d="M0,0h71.875v14h-71.875Z" pointer-events="none" opacity="1"/><g><g class="mark-symbol role-legend-symbol" pointer-events="none"><path transform="translate(7,7)" d="M-5,-5h10v10h-10Z" fill="#4c78a8" stroke-width="1.5" opacity="1"/></g><g class="mark-text role-legend-label" pointer-events="none"><text text-anchor="start" transform="translate(18,11)" font-family="Georgia" font-size="14px" fill="#000" opacity="1">Inslapen</text></g></g><path class="foreground" aria-hidden="true" d="" pointer-events="none" display="none"/></g><g transform="translate(0,16)"><path class="background" aria-hidden="true" d="M0,0h71.875v14h-71.875Z" pointer-events="none" opacity="1"/><g><g class="mark-symbol role-legend-symbol" pointer-events="none"><path transform="translate(7,7)" d="M-5,-5h10v10h-10Z" fill="#54a24b" stroke-width="1.5" opacity="1"/></g><g class="mark-text role-legend-label" pointer-events="none"><text text-anchor="start" transform="translate(18,11)" font-family="Georgia" font-size="14px" fill="#000" opacity="1">Slapen</text></g></g><path class="foreground" aria-hidden="true" d="" pointer-events="none" display="none"/></g><g transform="translate(0,32)"><path class="background" aria-hidden="true" d="M0,0h71.875v14h-71.875Z" pointer-events="none" opacity="1"/><g><g class="mark-symbol role-legend-symbol" pointer-events="none"><path transform="translate(7,7)" d="M-5,-5h10v10h-10Z" fill="#e45756" stroke-width="1.5" opacity="1"/></g><g class="mark-text role-legend-label" pointer-events="none"><text text-anchor="start" transform="translate(18,11)" font-family="Georgia" font-size="14px" fill="#000" opacity="1">Wakker</text></g></g><path class="foreground" aria-hidden="true" d="" pointer-events="none" display="none"/></g><g transform="translate(0,48)"><path class="background" aria-hidden="true" d="M0,0h71.875v14h-71.875Z" pointer-events="none" opacity="1"/><g><g class="mark-symbol role-legend-symbol" pointer-events="none"><path transform="translate(7,7)" d="M-5,-5h10v10h-10Z" fill="#eeca3b" stroke-width="1.5" opacity="1"/></g><g class="mark-text role-legend-label" pointer-events="none"><text text-anchor="start" transform="translate(18,11)" font-family="Georgia" font-size="14px" fill="#000" opacity="1">Waken</text></g></g><path class="foreground" aria-hidden="true" d="" pointer-events="none" display="none"/></g><g transform="translate(0,64)"><path class="background" aria-hidden="true" d="M0,0h71.875v14h-71.875Z" pointer-events="none" opacity="1"/><g><g class="mark-symbol role-legend-symbol" pointer-events="none"><path transform="translate(7,7)" d="M-5,-5h10v10h-10Z" fill="#ff9da6" stroke-width="1.5" opacity="1"/></g><g class="mark-text role-legend-label" pointer-events="none"><text text-anchor="start" transform="translate(18,11)" font-family="Georgia" font-size="14px" fill="#000" opacity="1">Uit bed</text></g></g><path class="foreground" aria-hidden="true" d="" pointer-events="none" display="none"/></g></g></g><path class="foreground" aria-hidden="true" d="" pointer-events="none" display="none"/></g></g><g class="mark-text role-legend-title" pointer-events="none"><text text-anchor="start" transform="translate(0,13)" font-family="Georgia" font-size="16px" font-weight="bold" fill="#000" opacity="1">category</text></g></g><path class="foreground" aria-hidden="true" d="" pointer-events="none" display="none"/></g></g><g class="mark-group role-title"><g transform="translate(-61,-43)"><path class="background" aria-hidden="true" d="M0,0h0v0h0Z" pointer-events="none"/><g><g class="mark-text role-title-text" role="graphics-symbol" aria-roledescription="title" aria-label="Title text 'Tijdlijnen bij geobserveerde slaappatronen'" pointer-events="none"><text text-anchor="start" transform="translate(0,14)" font-family="Georgia" font-size="18px" font-weight="bold" fill="#000" opacity="1">Tijdlijnen bij geobserveerde slaappatronen</text></g></g><path class="foreground" aria-hidden="true" d="" pointer-events="none" display="none"/></g></g></g><path class="foreground" aria-hidden="true" d="" display="none"/></g></g></g></svg>