<?xml version="1.0" encoding="UTF-8"?>
<svg width="1200pt" height="1200pt" version="1.1" viewBox="0 0 1200 1200" xmlns="http://www.w3.org/2000/svg">
 <g>
  <path d="m675 356.25h18.75c2.4883 0 4.8711-0.98828 6.6289-2.7461 1.7578-1.7578 2.7461-4.1406 2.7461-6.6289v-37.5c0-5.1758-4.1992-9.375-9.375-9.375s-9.375 4.1992-9.375 9.375v28.125h-9.375c-5.1758 0-9.375 4.1992-9.375 9.375s4.1992 9.375 9.375 9.375z"/>
  <path d="m650.49 386.28c2.3477 4.6172 7.9922 6.4531 12.605 4.1055 7.7656-3.9414 16.352-6.0039 25.062-6.0117h0.90625c5.1758 0 9.375-4.1992 9.375-9.375s-4.1992-9.375-9.375-9.375h-0.90625c-11.664 0.011719-23.164 2.7695-33.566 8.0508-4.6172 2.3477-6.4531 7.9922-4.1016 12.605z"/>
  <path d="m1143.8 206.25c0.019531-46.438-20.227-90.574-55.434-120.85-35.211-30.281-81.879-43.688-127.79-36.719-45.914 6.9688-86.5 33.621-111.14 72.988-2.6445 0.125-5.293 0.20703-7.9375 0.20703h-389.16c-19.148 0.003906-38.168-3.082-56.332-9.1406-7.2305-2.4648-15.207-1.2578-21.383 3.2383-6.2227 4.4609-9.9258 11.637-9.9648 19.293 0.003906 2.5781 0.42187 5.1367 1.2305 7.582 6.0625 18.16 9.1562 37.18 9.1523 56.324v2.7695l-197 41.473c-46.438 9.7773-85.727 40.504-106.41 83.211s-20.43 92.586 0.6875 135.08c21.121 42.496 60.723 72.816 107.25 82.121l195.5 39.109-0.035156 542.07c0 2.4883 0.98828 4.8711 2.7461 6.6289 1.7578 1.7578 4.1406 2.7461 6.6289 2.7461h525c2.4883 0 4.8711-0.98828 6.6289-2.7461 1.7578-1.7578 2.7461-4.1406 2.7461-6.6289v-163.28c21.566-6.1719 40.547-19.184 54.074-37.082 13.527-17.895 20.871-39.703 20.926-62.137v-337.5c-0.023438-22.371-8.9219-43.816-24.742-59.633-15.816-15.82-37.262-24.719-59.633-24.742h-225v-18.75h157.08c19.145 0.011719 38.164 3.0977 56.332 9.1406 2.4531 0.82422 5.0273 1.2461 7.6133 1.25 4.9492-0.003906 9.7695-1.5742 13.77-4.4883 6.2227-4.4609 9.9297-11.637 9.9648-19.293-0.003906-2.5781-0.42187-5.1367-1.2305-7.582-5.3281-15.965-8.3633-32.602-9.0156-49.418 49.309 22.281 106.55 18.008 152-11.348 45.453-29.355 72.891-79.781 72.859-133.89zm-777.89 194.66c-0.83984 2.5273-1.25 5.1758-1.2148 7.8398l-78.406-15.684 86.129-18.133-0.003907 0.003906c-1.5117 8.8086-3.6875 17.492-6.5039 25.973zm14.977-46.918-141.14 29.711-71.438-14.379c-2.4492-0.51953-5.0039-0.035157-7.0938 1.3398-2.0938 1.375-3.5469 3.5273-4.043 5.9805-0.49219 2.4531 0.015625 5.0039 1.4102 7.082 1.3945 2.0781 3.5664 3.5078 6.0234 3.9805l91.977 18.547-29.531 127.95-43.809-8.7617c-40.836-8.1719-75.59-34.789-94.121-72.086s-18.754-81.07-0.60156-118.55c18.156-37.484 52.637-64.449 93.387-73.035l319.67-66.82h0.003906c2.457-0.52344 5.0195-0.039063 7.1133 1.3477 2.0977 1.3828 3.5508 3.5508 4.0352 6.0156 0.48437 2.4648-0.042969 5.0195-1.457 7.0938-1.418 2.0742-3.6055 3.4922-6.0781 3.9375l-75.234 14.969c-4.7344 0.9375-7.9844 5.3125-7.5117 10.113 0.46875 4.8008 4.5078 8.4609 9.3281 8.4609 0.62109 0 1.2344-0.0625 1.8398-0.17969l75.234-14.969c5.082-1.0039 10.012 2.3008 11.016 7.3789 1.0039 5.082-2.3008 10.012-7.3789 11.016l-74.629 14.598v0.003906c-5.082 0.99219-8.3945 5.9219-7.3984 11.004 0.99609 5.0781 5.9219 8.3945 11.004 7.3984l74.652-14.605h-0.003906c2.457-0.51562 5.0156-0.023438 7.1055 1.3633 2.0898 1.3867 3.5352 3.5547 4.0156 6.0156 0.48438 2.4609-0.042969 5.0117-1.457 7.0859-1.418 2.0703-3.6016 3.4883-6.0703 3.9336l-74.578 15.012c-2.4648 0.46484-4.6367 1.8984-6.0391 3.9766-1.3984 2.0781-1.9102 4.6328-1.4141 7.0898 0.49219 2.457 1.9531 4.6133 4.0469 5.9883 2.0977 1.375 4.6562 1.8516 7.1055 1.3281l74.531-15.012c5.0859-0.98438 10.004 2.3398 10.988 7.4219 0.98438 5.0859-2.3398 10.004-7.4258 10.988l-81.848 16.758h0.003906c-3.7852 0.77344-6.7031 3.7852-7.3594 7.5898-0.65625 3.8047 1.0859 7.6211 4.3906 9.6172l28.48 17.203c5.9375 3.5859 7.9023 11.27 4.418 17.262-3.4883 5.9961-11.141 8.0859-17.191 4.6953l-70.219-41.738v-0.003906c-2.0195-1.1992-4.418-1.5977-6.7188-1.1133zm228.54 67.883v18.75h-85.367l-89.242-17.852c5.8164-0.57422 11.668-0.89844 17.539-0.89844zm-221.08-8.3945-1.6211-0.32422 0.003906 0.003906c-1.2148-0.48047-2.2109-1.3789-2.8125-2.5352-0.59766-1.1758-0.68359-2.5469-0.23438-3.7852 3.0391-9.1641 5.4023-18.535 7.0664-28.047l42.547 25.293c-14.691 1.4141-29.172 4.4805-43.176 9.1406-0.57422 0.17969-1.1719 0.26563-1.7734 0.25391zm511.71 702.14h-506.25v-93.75h506.25zm-65.625-300c2.4883 0 4.8711-0.98828 6.6289-2.7461 1.7578-1.7578 2.7461-4.1406 2.7461-6.6289v-84.375h131.25v140.62c-0.039062 19.434-6.7695 38.262-19.055 53.32-12.289 15.059-29.387 25.426-48.418 29.363h-0.039063c-5.5508 1.1172-11.199 1.6836-16.863 1.6914h-431.25c-5.1758 0-9.375-4.1992-9.375-9.375s4.1992-9.375 9.375-9.375h75c5.1758 0 9.375-4.1992 9.375-9.375s-4.1992-9.375-9.375-9.375h-75c-5.1758 0-9.375-4.1992-9.375-9.375s4.1992-9.375 9.375-9.375h75c5.1758 0 9.375-4.1992 9.375-9.375s-4.1992-9.375-9.375-9.375h-75c-5.1758 0-9.375-4.1992-9.375-9.375s4.1992-9.375 9.375-9.375h75c5.1758 0 9.375-4.1992 9.375-9.375s-4.1992-9.375-9.375-9.375h-75c-5.1758 0-9.375-4.1992-9.375-9.375s4.1992-9.375 9.375-9.375h103.92c3.7734 0 7.1797-2.2656 8.6406-5.7461 1.4609-3.4805 0.69531-7.4961-1.9492-10.191l-23.938-24.414h0.003906c-4.832-4.9727-4.7812-12.902 0.11719-17.816 4.8945-4.9102 12.824-4.9883 17.816-0.17188l57.133 55.68h-0.003907c1.7539 1.707 4.0977 2.6602 6.543 2.6602zm-121.91-454.67c0.054688 10.531-3.8555 20.699-10.953 28.48s-16.863 12.605-27.355 13.52c-1.2812 0.11328-8.2422 0.17188-8.2422 0.17188-5.1602-0.070312-9.4023 4.0547-9.4844 9.2148-0.082032 5.1602 4.0312 9.4102 9.1914 9.5039v28.156c0 2.4883 0.98828 4.8711 2.7461 6.6289 1.7578 1.7578 4.1406 2.7461 6.6289 2.7461h53.953c-3.0859 27.758-19.711 52.191-44.395 65.254-24.688 13.062-54.238 13.062-78.926 0s-41.309-37.496-44.395-65.254h57.512c2.4883 0 4.8711-0.98828 6.6289-2.7461 1.7578-1.7578 2.7461-4.1406 2.7461-6.6289v-93.75c0-2.4883-0.98828-4.8711-2.7461-6.6289-1.7578-1.7578-4.1406-2.7461-6.6289-2.7461-4.5391-0.019531-8.918-1.6797-12.332-4.668-3.4141-2.9922-5.6328-7.1133-6.2539-11.609-0.023437-0.23438-0.16406-1.9844-0.16406-2.4727 0.007812-6.6914 3.5742-12.871 9.3672-16.223 5.7891-3.3516 12.926-3.3711 18.73-0.046875 4.1289 2.3711 9.375 1.2695 12.207-2.5547 7.2891-9.8984 12.145-21.375 14.172-33.5 17.977 9.4961 37.719 15.184 57.992 16.719zm195.73 51.625c-1.293 0.95703-2.9766 1.2031-4.4883 0.66016-20.078-6.6836-41.102-10.098-62.262-10.113h-127.05c10.844-11.355 16.867-26.473 16.812-42.172v-67.984h28.156c2.4883 0 4.8711-0.98828 6.6289-2.7461 1.7578-1.7578 2.7461-4.1406 2.7461-6.6289v-35.812c0-24.66-13.102-47.469-34.402-59.895-21.305-12.426-47.602-12.602-69.07-0.46094l-19.328 10.922h0.003906c-14.223-4.3789-29.535-3.5586-43.203 2.3203-13.668 5.875-24.805 16.422-31.41 29.754-6.6055 13.332-8.2539 28.578-4.6484 43.016 0 0 11.953 44.926 14.949 60.121 1.2539 7.2305 4.5195 13.965 9.4258 19.422 4.9062 5.4609 11.25 9.4258 18.309 11.441v38.703h-119.23c0.078125-0.11328 0.16797-0.21484 0.23438-0.32812 4.6133-7.1406 6.1328-15.844 4.2227-24.125-1.9141-8.2812-7.1016-15.434-14.375-19.828l-7.9531-4.8047 58.293-11.938c7.1484-1.3984 13.473-5.5195 17.641-11.496 4.1641-5.9727 5.8477-13.332 4.6875-20.523-1.1562-7.1914-5.0625-13.652-10.895-18.016 3.5664-5.9375 4.7969-12.992 3.457-19.785-1.3398-6.7969-5.1562-12.852-10.707-16.996 3.5547-5.9414 4.7852-12.996 3.4453-19.793-1.3398-6.793-5.1523-12.852-10.699-17.004 3.7227-6.2539 4.875-13.711 3.207-20.797-1.6641-7.0859-6.0117-13.25-12.133-17.195-6.1172-3.9414-13.527-5.3555-20.668-3.9453l-104.17 21.449c-0.11328-20.754-3.5156-41.359-10.078-61.051-0.18359-0.54297-0.27734-1.1172-0.28125-1.6914 0.03125-1.6328 0.83984-3.1523 2.1797-4.0859 1.293-0.96094 2.9766-1.207 4.4922-0.66016 20.07 6.6992 41.094 10.117 62.258 10.113h386.9c-15.934 35.145-18.551 74.879-7.3633 111.81 11.184 36.934 35.41 68.539 68.168 88.934v3.2109c-0.003906 21.148 3.4062 42.16 10.102 62.223 0.18359 0.54297 0.27734 1.1172 0.28125 1.6914-0.03125 1.6328-0.83984 3.1523-2.1797 4.0859zm-8.2031-215.7h-18.305c2.2227-23.996 12.77-46.457 29.809-63.496 17.039-17.039 39.5-27.586 63.496-29.809v18.305c0 5.1758 4.1992 9.375 9.375 9.375s9.375-4.1992 9.375-9.375v-18.305c23.996 2.2227 46.457 12.77 63.496 29.809 17.039 17.039 27.586 39.5 29.809 63.496h-18.305c-5.1758 0-9.375 4.1992-9.375 9.375s4.1992 9.375 9.375 9.375h18.305c-2.2227 23.996-12.77 46.457-29.809 63.496-17.039 17.039-39.5 27.586-63.496 29.809v-18.305c0-5.1758-4.1992-9.375-9.375-9.375s-9.375 4.1992-9.375 9.375v18.305c-23.996-2.2227-46.457-12.77-63.496-29.809-17.039-17.039-27.586-39.5-29.809-63.496h18.305c5.1758 0 9.375-4.1992 9.375-9.375s-4.1992-9.375-9.375-9.375z"/>
  <path d="m984.38 215.62c1.1914 0 2.3711-0.22656 3.4766-0.67188l46.875-18.75c2.3281-0.90625 4.1992-2.7109 5.1914-5.0039 0.99219-2.293 1.0312-4.8867 0.10156-7.207-0.92578-2.3203-2.7422-4.1758-5.043-5.1484-2.3008-0.97656-4.8945-0.99609-7.2109-0.046875l-25.859 10.344 19.219-44.82c2.0391-4.7617-0.16406-10.273-4.9258-12.312-4.7578-2.0391-10.27 0.16406-12.309 4.9219l-28.125 65.625c-1.2422 2.8984-0.94531 6.2227 0.78516 8.8516 1.7344 2.6328 4.6719 4.2188 7.8242 4.2188z"/>
 </g>
</svg>
